<mxfile host="Electron" agent="Mozilla/5.0 (Windows NT 10.0; Win64; x64) AppleWebKit/537.36 (KHTML, like Gecko) draw.io/27.0.9 Chrome/134.0.6998.205 Electron/35.4.0 Safari/537.36" version="27.0.9" pages="6">
  <diagram id="MfM8Vi8mrlPg9jzEBxU_" name="HOMEPAGE">
    <mxGraphModel dx="9142" dy="3916" grid="1" gridSize="10" guides="1" tooltips="1" connect="1" arrows="1" fold="1" page="1" pageScale="1" pageWidth="1654" pageHeight="2336" math="0" shadow="0">
      <root>
        <mxCell id="0" />
        <mxCell id="1" parent="0" />
        <mxCell id="2Ikb18TXHeWLOF30Oojo-2" value="" style="strokeWidth=1;shadow=0;dashed=0;align=center;html=1;shape=mxgraph.mockup.containers.browserWindow;rSize=0;strokeColor=#666666;strokeColor2=#008cff;strokeColor3=#c4c4c4;mainText=,;recursiveResize=0;hachureGap=4;fontFamily=Architects Daughter;fontSource=https%3A%2F%2Ffonts.googleapis.com%2Fcss%3Ffamily%3DArchitects%2BDaughter;fillColor=#f5f5f5;gradientColor=#b3b3b3;movable=0;resizable=0;rotatable=0;deletable=0;editable=0;locked=1;connectable=0;" parent="1" vertex="1">
          <mxGeometry width="1580" height="2330" as="geometry" />
        </mxCell>
        <mxCell id="2Ikb18TXHeWLOF30Oojo-3" value="Page 1" style="strokeWidth=1;shadow=0;dashed=0;align=center;html=1;shape=mxgraph.mockup.containers.anchor;fontSize=17;fontColor=#666666;align=left;whiteSpace=wrap;sketch=1;hachureGap=4;jiggle=2;curveFitting=1;fontFamily=Architects Daughter;fontSource=https%3A%2F%2Ffonts.googleapis.com%2Fcss%3Ffamily%3DArchitects%2BDaughter;" parent="2Ikb18TXHeWLOF30Oojo-2" vertex="1">
          <mxGeometry x="60" y="12" width="110" height="26" as="geometry" />
        </mxCell>
        <mxCell id="2Ikb18TXHeWLOF30Oojo-4" value="https://www.draw.io" style="strokeWidth=1;shadow=0;dashed=0;align=center;html=1;shape=mxgraph.mockup.containers.anchor;rSize=0;fontSize=17;fontColor=#666666;align=left;sketch=1;hachureGap=4;jiggle=2;curveFitting=1;fontFamily=Architects Daughter;fontSource=https%3A%2F%2Ffonts.googleapis.com%2Fcss%3Ffamily%3DArchitects%2BDaughter;" parent="2Ikb18TXHeWLOF30Oojo-2" vertex="1">
          <mxGeometry x="130" y="60" width="250" height="26" as="geometry" />
        </mxCell>
        <mxCell id="XCLAvbW0XNBxhQ3h1dfB-1" value="Icon" style="icon;html=1;image=img/clipart/Gear_128x128.png;hachureGap=4;fontFamily=Architects Daughter;fontSource=https%3A%2F%2Ffonts.googleapis.com%2Fcss%3Ffamily%3DArchitects%2BDaughter;rounded=0;fillColor=#fff2cc;strokeColor=none;movable=1;resizable=1;rotatable=1;deletable=1;editable=1;locked=0;connectable=1;" vertex="1" parent="1">
          <mxGeometry y="110" width="1580" height="710" as="geometry" />
        </mxCell>
        <mxCell id="XCLAvbW0XNBxhQ3h1dfB-3" value="" style="shape=image;html=1;verticalLabelPosition=bottom;verticalAlign=top;imageAspect=0;image=img/clipart/Gear_128x128.png;sketch=1;hachureGap=4;jiggle=2;curveFitting=1;fontFamily=Architects Daughter;fontSource=https%3A%2F%2Ffonts.googleapis.com%2Fcss%3Ffamily%3DArchitects%2BDaughter;movable=1;resizable=1;rotatable=1;deletable=1;editable=1;locked=0;connectable=1;" vertex="1" parent="1">
          <mxGeometry x="900" y="260" width="550" height="500" as="geometry" />
        </mxCell>
        <mxCell id="XCLAvbW0XNBxhQ3h1dfB-4" value="&lt;font style=&quot;font-size: 65px;&quot;&gt;¿Buscas lo mejor en ERP?&lt;/font&gt;&amp;nbsp;&lt;div&gt;Usa NaturaCifra&lt;/div&gt;" style="text;html=1;align=left;verticalAlign=middle;whiteSpace=wrap;rounded=0;fontFamily=Verdana;fontColor=#000000;fontSize=82;movable=1;resizable=1;rotatable=1;deletable=1;editable=1;locked=0;connectable=1;" vertex="1" parent="1">
          <mxGeometry x="50" y="270" width="900" height="190" as="geometry" />
        </mxCell>
        <mxCell id="XCLAvbW0XNBxhQ3h1dfB-6" value="Impulsa tu la administración, desarrollo, y rendimiento de tu negocio o a los que le sirves con NaturaCifra." style="text;html=1;align=left;verticalAlign=middle;whiteSpace=wrap;rounded=0;fontFamily=Georgia;fontColor=#000000;fontSize=22;" vertex="1" parent="1">
          <mxGeometry x="60" y="460" width="680" height="70" as="geometry" />
        </mxCell>
        <mxCell id="XCLAvbW0XNBxhQ3h1dfB-31" value="" style="edgeStyle=none;curved=1;rounded=0;sketch=1;hachureGap=4;jiggle=2;curveFitting=1;orthogonalLoop=1;jettySize=auto;html=1;fontFamily=Architects Daughter;fontSource=https%3A%2F%2Ffonts.googleapis.com%2Fcss%3Ffamily%3DArchitects%2BDaughter;fontSize=16;startSize=14;endArrow=open;endSize=14;sourcePerimeterSpacing=8;targetPerimeterSpacing=8;entryX=1;entryY=0.5;entryDx=0;entryDy=0;fillColor=#d80073;strokeColor=#A50040;" edge="1" parent="1" source="XCLAvbW0XNBxhQ3h1dfB-7" target="XCLAvbW0XNBxhQ3h1dfB-32">
          <mxGeometry relative="1" as="geometry" />
        </mxCell>
        <mxCell id="XCLAvbW0XNBxhQ3h1dfB-7" value="Demo gratis" style="rounded=1;whiteSpace=wrap;html=1;hachureGap=4;fontFamily=Verdana;fillColor=#0050ef;strokeColor=none;fontColor=#ffffff;fontSize=20;shadow=1;glass=0;arcSize=18;" vertex="1" parent="1">
          <mxGeometry x="60" y="560" width="180" height="60" as="geometry" />
        </mxCell>
        <mxCell id="XCLAvbW0XNBxhQ3h1dfB-19" value="Inicio" style="text;html=1;align=center;verticalAlign=middle;whiteSpace=wrap;rounded=0;fontFamily=Verdana;fontSize=25;fontColor=#000000;" vertex="1" parent="1">
          <mxGeometry x="910" y="140.66" width="100" height="30" as="geometry" />
        </mxCell>
        <mxCell id="XCLAvbW0XNBxhQ3h1dfB-20" value="Contactanos" style="text;html=1;align=center;verticalAlign=middle;whiteSpace=wrap;rounded=0;fontFamily=Verdana;fontSize=25;fontColor=#000000;" vertex="1" parent="1">
          <mxGeometry x="1180" y="140.66" width="160" height="30" as="geometry" />
        </mxCell>
        <mxCell id="XCLAvbW0XNBxhQ3h1dfB-21" value="Productos" style="text;html=1;align=center;verticalAlign=middle;whiteSpace=wrap;rounded=0;fontFamily=Verdana;fontSize=25;fontColor=#000000;" vertex="1" parent="1">
          <mxGeometry x="1030" y="140.66" width="130" height="30" as="geometry" />
        </mxCell>
        <mxCell id="XCLAvbW0XNBxhQ3h1dfB-22" style="edgeStyle=none;curved=1;rounded=0;sketch=1;hachureGap=4;jiggle=2;curveFitting=1;orthogonalLoop=1;jettySize=auto;html=1;exitX=0.75;exitY=1;exitDx=0;exitDy=0;fontFamily=Architects Daughter;fontSource=https%3A%2F%2Ffonts.googleapis.com%2Fcss%3Ffamily%3DArchitects%2BDaughter;fontSize=16;startSize=14;endArrow=open;endSize=14;sourcePerimeterSpacing=8;targetPerimeterSpacing=8;" edge="1" parent="1" source="XCLAvbW0XNBxhQ3h1dfB-21" target="XCLAvbW0XNBxhQ3h1dfB-21">
          <mxGeometry relative="1" as="geometry" />
        </mxCell>
        <mxCell id="XCLAvbW0XNBxhQ3h1dfB-24" style="edgeStyle=none;curved=1;rounded=0;sketch=1;hachureGap=4;jiggle=2;curveFitting=1;orthogonalLoop=1;jettySize=auto;html=1;exitX=0.5;exitY=0.5;exitDx=0;exitDy=0;exitPerimeter=0;fontFamily=Architects Daughter;fontSource=https%3A%2F%2Ffonts.googleapis.com%2Fcss%3Ffamily%3DArchitects%2BDaughter;fontSize=16;startSize=14;endArrow=open;endSize=14;sourcePerimeterSpacing=8;targetPerimeterSpacing=8;" edge="1" parent="1" source="XCLAvbW0XNBxhQ3h1dfB-23">
          <mxGeometry relative="1" as="geometry">
            <mxPoint x="120" y="150" as="targetPoint" />
          </mxGeometry>
        </mxCell>
        <mxCell id="XCLAvbW0XNBxhQ3h1dfB-23" value="Actor" style="shape=umlActor;verticalLabelPosition=bottom;verticalAlign=top;html=1;outlineConnect=0;sketch=1;hachureGap=4;jiggle=2;curveFitting=1;fontFamily=Architects Daughter;fontSource=https%3A%2F%2Ffonts.googleapis.com%2Fcss%3Ffamily%3DArchitects%2BDaughter;rotation=-89;fillColor=#60a917;fontColor=#ffffff;strokeColor=#2D7600;" vertex="1" parent="1">
          <mxGeometry x="102.32" y="73.41" width="50" height="165" as="geometry" />
        </mxCell>
        <mxCell id="XCLAvbW0XNBxhQ3h1dfB-29" value="" style="edgeStyle=none;curved=1;rounded=0;sketch=1;hachureGap=4;jiggle=2;curveFitting=1;orthogonalLoop=1;jettySize=auto;html=1;fontFamily=Architects Daughter;fontSource=https%3A%2F%2Ffonts.googleapis.com%2Fcss%3Ffamily%3DArchitects%2BDaughter;fontSize=16;startSize=14;endArrow=open;endSize=14;sourcePerimeterSpacing=8;targetPerimeterSpacing=8;fillColor=#d80073;strokeColor=#A50040;" edge="1" parent="1" source="XCLAvbW0XNBxhQ3h1dfB-25" target="XCLAvbW0XNBxhQ3h1dfB-28">
          <mxGeometry relative="1" as="geometry" />
        </mxCell>
        <mxCell id="XCLAvbW0XNBxhQ3h1dfB-25" value="Acceso cliente" style="rounded=1;whiteSpace=wrap;html=1;hachureGap=4;fontFamily=Verdana;fillColor=none;strokeColor=#1040FF;fontColor=#025EF2;fontSize=20;shadow=1;glass=0;arcSize=25;strokeWidth=2;" vertex="1" parent="1">
          <mxGeometry x="1370" y="133.16" width="170" height="45" as="geometry" />
        </mxCell>
        <mxCell id="XCLAvbW0XNBxhQ3h1dfB-28" value="&lt;div&gt;&lt;br&gt;&lt;/div&gt;&lt;div&gt;&lt;font style=&quot;color: rgb(255, 255, 255);&quot;&gt;Este botón te lleva al login form&lt;/font&gt;&lt;/div&gt;" style="whiteSpace=wrap;html=1;fontSize=20;fontFamily=Verdana;fillColor=none;strokeColor=#FFFFFF;fontColor=#025EF2;rounded=1;hachureGap=4;shadow=1;glass=0;arcSize=25;strokeWidth=2;" vertex="1" parent="1">
          <mxGeometry x="1690" y="73.41" width="265" height="134.34" as="geometry" />
        </mxCell>
        <mxCell id="XCLAvbW0XNBxhQ3h1dfB-32" value="&lt;div&gt;&lt;br&gt;&lt;/div&gt;&lt;div&gt;&lt;font style=&quot;color: rgb(255, 255, 255);&quot;&gt;Este botón te lleva a la pagina de productos para mostrar los mismo y permitir al visitante pedir un demo&lt;/font&gt;&lt;/div&gt;" style="whiteSpace=wrap;html=1;fontSize=20;fontFamily=Verdana;fillColor=none;strokeColor=#FFFFFF;fontColor=#025EF2;rounded=1;hachureGap=4;shadow=1;glass=0;arcSize=14;strokeWidth=2;" vertex="1" parent="1">
          <mxGeometry x="-370" y="580" width="305" height="170" as="geometry" />
        </mxCell>
        <mxCell id="XCLAvbW0XNBxhQ3h1dfB-35" value="" style="shape=image;html=1;verticalLabelPosition=bottom;verticalAlign=top;imageAspect=0;image=img/clipart/Gear_128x128.png;sketch=1;hachureGap=4;jiggle=2;curveFitting=1;fontFamily=Architects Daughter;fontSource=https%3A%2F%2Ffonts.googleapis.com%2Fcss%3Ffamily%3DArchitects%2BDaughter;imageBackground=none;" vertex="1" parent="1">
          <mxGeometry x="10" y="820" width="830" height="680" as="geometry" />
        </mxCell>
        <mxCell id="XCLAvbW0XNBxhQ3h1dfB-36" value="" style="strokeWidth=1;shadow=0;dashed=0;align=center;html=1;shape=mxgraph.mockup.containers.browserWindow;rSize=0;strokeColor=#666666;strokeColor2=#008cff;strokeColor3=#c4c4c4;mainText=,;recursiveResize=0;hachureGap=4;fontFamily=Architects Daughter;fontSource=https%3A%2F%2Ffonts.googleapis.com%2Fcss%3Ffamily%3DArchitects%2BDaughter;fillColor=#f5f5f5;gradientColor=#b3b3b3;movable=1;resizable=1;rotatable=1;deletable=1;editable=1;locked=0;connectable=1;" vertex="1" parent="1">
          <mxGeometry x="2785" y="1190" width="1580" height="2330" as="geometry" />
        </mxCell>
        <mxCell id="XCLAvbW0XNBxhQ3h1dfB-37" value="Page 1" style="strokeWidth=1;shadow=0;dashed=0;align=center;html=1;shape=mxgraph.mockup.containers.anchor;fontSize=17;fontColor=#666666;align=left;whiteSpace=wrap;sketch=1;hachureGap=4;jiggle=2;curveFitting=1;fontFamily=Architects Daughter;fontSource=https%3A%2F%2Ffonts.googleapis.com%2Fcss%3Ffamily%3DArchitects%2BDaughter;" vertex="1" parent="XCLAvbW0XNBxhQ3h1dfB-36">
          <mxGeometry x="60" y="12" width="110" height="26" as="geometry" />
        </mxCell>
        <mxCell id="XCLAvbW0XNBxhQ3h1dfB-38" value="https://www.draw.io" style="strokeWidth=1;shadow=0;dashed=0;align=center;html=1;shape=mxgraph.mockup.containers.anchor;rSize=0;fontSize=17;fontColor=#666666;align=left;sketch=1;hachureGap=4;jiggle=2;curveFitting=1;fontFamily=Architects Daughter;fontSource=https%3A%2F%2Ffonts.googleapis.com%2Fcss%3Ffamily%3DArchitects%2BDaughter;" vertex="1" parent="XCLAvbW0XNBxhQ3h1dfB-36">
          <mxGeometry x="130" y="60" width="250" height="26" as="geometry" />
        </mxCell>
        <mxCell id="XCLAvbW0XNBxhQ3h1dfB-39" value="Icon" style="icon;html=1;image=img/clipart/Gear_128x128.png;hachureGap=4;fontFamily=Architects Daughter;fontSource=https%3A%2F%2Ffonts.googleapis.com%2Fcss%3Ffamily%3DArchitects%2BDaughter;rounded=0;fillColor=#fff2cc;strokeColor=none;movable=1;resizable=1;rotatable=1;deletable=1;editable=1;locked=0;connectable=1;" vertex="1" parent="1">
          <mxGeometry x="2785" y="1300" width="1580" height="710" as="geometry" />
        </mxCell>
        <mxCell id="XCLAvbW0XNBxhQ3h1dfB-40" value="" style="shape=image;html=1;verticalLabelPosition=bottom;verticalAlign=top;imageAspect=0;image=img/clipart/Gear_128x128.png;sketch=1;hachureGap=4;jiggle=2;curveFitting=1;fontFamily=Architects Daughter;fontSource=https%3A%2F%2Ffonts.googleapis.com%2Fcss%3Ffamily%3DArchitects%2BDaughter;movable=1;resizable=1;rotatable=1;deletable=1;editable=1;locked=0;connectable=1;" vertex="1" parent="1">
          <mxGeometry x="3685" y="1450" width="550" height="500" as="geometry" />
        </mxCell>
        <mxCell id="XCLAvbW0XNBxhQ3h1dfB-41" value="&lt;font style=&quot;font-size: 65px;&quot;&gt;¿Buscas lo mejor en ERP?&lt;/font&gt;&amp;nbsp;&lt;div&gt;Usa NaturaCifra&lt;/div&gt;" style="text;html=1;align=left;verticalAlign=middle;whiteSpace=wrap;rounded=0;fontFamily=Verdana;fontColor=#000000;fontSize=82;movable=1;resizable=1;rotatable=1;deletable=1;editable=1;locked=0;connectable=1;" vertex="1" parent="1">
          <mxGeometry x="2835" y="1460" width="900" height="190" as="geometry" />
        </mxCell>
        <mxCell id="XCLAvbW0XNBxhQ3h1dfB-42" value="Impulsa tu la administración, desarrollo, y rendimiento de tu negocio o a los que le sirves con NaturaCifra." style="text;html=1;align=left;verticalAlign=middle;whiteSpace=wrap;rounded=0;fontFamily=Georgia;fontColor=#000000;fontSize=22;" vertex="1" parent="1">
          <mxGeometry x="2845" y="1650" width="680" height="70" as="geometry" />
        </mxCell>
        <mxCell id="XCLAvbW0XNBxhQ3h1dfB-43" value="" style="edgeStyle=none;curved=1;rounded=0;sketch=1;hachureGap=4;jiggle=2;curveFitting=1;orthogonalLoop=1;jettySize=auto;html=1;fontFamily=Architects Daughter;fontSource=https%3A%2F%2Ffonts.googleapis.com%2Fcss%3Ffamily%3DArchitects%2BDaughter;fontSize=16;startSize=14;endArrow=open;endSize=14;sourcePerimeterSpacing=8;targetPerimeterSpacing=8;entryX=1;entryY=0.5;entryDx=0;entryDy=0;fillColor=#d80073;strokeColor=#A50040;" edge="1" parent="1" source="XCLAvbW0XNBxhQ3h1dfB-44">
          <mxGeometry relative="1" as="geometry">
            <mxPoint x="2720" y="1855" as="targetPoint" />
          </mxGeometry>
        </mxCell>
        <mxCell id="XCLAvbW0XNBxhQ3h1dfB-44" value="Demo gratis" style="rounded=1;whiteSpace=wrap;html=1;hachureGap=4;fontFamily=Verdana;fillColor=#0050ef;strokeColor=none;fontColor=#ffffff;fontSize=20;shadow=1;glass=0;arcSize=18;" vertex="1" parent="1">
          <mxGeometry x="2845" y="1750" width="180" height="60" as="geometry" />
        </mxCell>
        <mxCell id="XCLAvbW0XNBxhQ3h1dfB-45" value="Inicio" style="text;html=1;align=center;verticalAlign=middle;whiteSpace=wrap;rounded=0;fontFamily=Verdana;fontSize=25;fontColor=#000000;" vertex="1" parent="1">
          <mxGeometry x="3695" y="1330.6599999999999" width="100" height="30" as="geometry" />
        </mxCell>
        <mxCell id="XCLAvbW0XNBxhQ3h1dfB-46" value="Contactanos" style="text;html=1;align=center;verticalAlign=middle;whiteSpace=wrap;rounded=0;fontFamily=Verdana;fontSize=25;fontColor=#000000;" vertex="1" parent="1">
          <mxGeometry x="3965" y="1330.6599999999999" width="160" height="30" as="geometry" />
        </mxCell>
        <mxCell id="XCLAvbW0XNBxhQ3h1dfB-47" value="Productos" style="text;html=1;align=center;verticalAlign=middle;whiteSpace=wrap;rounded=0;fontFamily=Verdana;fontSize=25;fontColor=#000000;" vertex="1" parent="1">
          <mxGeometry x="3815" y="1330.6599999999999" width="130" height="30" as="geometry" />
        </mxCell>
        <mxCell id="XCLAvbW0XNBxhQ3h1dfB-48" style="edgeStyle=none;curved=1;rounded=0;sketch=1;hachureGap=4;jiggle=2;curveFitting=1;orthogonalLoop=1;jettySize=auto;html=1;exitX=0.75;exitY=1;exitDx=0;exitDy=0;fontFamily=Architects Daughter;fontSource=https%3A%2F%2Ffonts.googleapis.com%2Fcss%3Ffamily%3DArchitects%2BDaughter;fontSize=16;startSize=14;endArrow=open;endSize=14;sourcePerimeterSpacing=8;targetPerimeterSpacing=8;" edge="1" parent="1" source="XCLAvbW0XNBxhQ3h1dfB-47" target="XCLAvbW0XNBxhQ3h1dfB-47">
          <mxGeometry relative="1" as="geometry" />
        </mxCell>
        <mxCell id="XCLAvbW0XNBxhQ3h1dfB-49" style="edgeStyle=none;curved=1;rounded=0;sketch=1;hachureGap=4;jiggle=2;curveFitting=1;orthogonalLoop=1;jettySize=auto;html=1;exitX=0.5;exitY=0.5;exitDx=0;exitDy=0;exitPerimeter=0;fontFamily=Architects Daughter;fontSource=https%3A%2F%2Ffonts.googleapis.com%2Fcss%3Ffamily%3DArchitects%2BDaughter;fontSize=16;startSize=14;endArrow=open;endSize=14;sourcePerimeterSpacing=8;targetPerimeterSpacing=8;" edge="1" parent="1" source="XCLAvbW0XNBxhQ3h1dfB-50">
          <mxGeometry relative="1" as="geometry">
            <mxPoint x="2905" y="1340" as="targetPoint" />
          </mxGeometry>
        </mxCell>
        <mxCell id="XCLAvbW0XNBxhQ3h1dfB-50" value="Actor" style="shape=umlActor;verticalLabelPosition=bottom;verticalAlign=top;html=1;outlineConnect=0;sketch=1;hachureGap=4;jiggle=2;curveFitting=1;fontFamily=Architects Daughter;fontSource=https%3A%2F%2Ffonts.googleapis.com%2Fcss%3Ffamily%3DArchitects%2BDaughter;rotation=-89;fillColor=#60a917;fontColor=#ffffff;strokeColor=#2D7600;" vertex="1" parent="1">
          <mxGeometry x="2887.32" y="1263.4099999999999" width="50" height="165" as="geometry" />
        </mxCell>
        <mxCell id="XCLAvbW0XNBxhQ3h1dfB-51" value="" style="edgeStyle=none;curved=1;rounded=0;sketch=1;hachureGap=4;jiggle=2;curveFitting=1;orthogonalLoop=1;jettySize=auto;html=1;fontFamily=Architects Daughter;fontSource=https%3A%2F%2Ffonts.googleapis.com%2Fcss%3Ffamily%3DArchitects%2BDaughter;fontSize=16;startSize=14;endArrow=open;endSize=14;sourcePerimeterSpacing=8;targetPerimeterSpacing=8;fillColor=#d80073;strokeColor=#A50040;" edge="1" parent="1" source="XCLAvbW0XNBxhQ3h1dfB-52">
          <mxGeometry relative="1" as="geometry">
            <mxPoint x="4440" y="1390" as="targetPoint" />
          </mxGeometry>
        </mxCell>
        <mxCell id="XCLAvbW0XNBxhQ3h1dfB-52" value="Acceso cliente" style="rounded=1;whiteSpace=wrap;html=1;hachureGap=4;fontFamily=Verdana;fillColor=none;strokeColor=#1040FF;fontColor=#025EF2;fontSize=20;shadow=1;glass=0;arcSize=25;strokeWidth=2;" vertex="1" parent="1">
          <mxGeometry x="4155" y="1323.1599999999999" width="170" height="45" as="geometry" />
        </mxCell>
        <mxCell id="XCLAvbW0XNBxhQ3h1dfB-55" value="" style="edgeStyle=none;curved=1;rounded=0;sketch=1;hachureGap=4;jiggle=2;curveFitting=1;orthogonalLoop=1;jettySize=auto;html=1;fontFamily=Architects Daughter;fontSource=https%3A%2F%2Ffonts.googleapis.com%2Fcss%3Ffamily%3DArchitects%2BDaughter;fontSize=16;startSize=14;endArrow=open;endSize=14;sourcePerimeterSpacing=8;targetPerimeterSpacing=8;exitX=1;exitY=0.5;exitDx=0;exitDy=0;" edge="1" parent="1" source="XCLAvbW0XNBxhQ3h1dfB-53" target="XCLAvbW0XNBxhQ3h1dfB-44">
          <mxGeometry relative="1" as="geometry" />
        </mxCell>
        <mxCell id="XCLAvbW0XNBxhQ3h1dfB-53" value="&lt;div&gt;&lt;br&gt;&lt;/div&gt;&lt;div&gt;&lt;font style=&quot;color: rgb(255, 255, 255);&quot;&gt;Este botón te lleva a la pagina de productos para mostrar los mismo y permitir al visitante pedir un demo&lt;/font&gt;&lt;/div&gt;" style="whiteSpace=wrap;html=1;fontSize=20;fontFamily=Verdana;fillColor=none;strokeColor=#FFFFFF;fontColor=#025EF2;rounded=1;hachureGap=4;shadow=1;glass=0;arcSize=14;strokeWidth=2;" vertex="1" parent="1">
          <mxGeometry x="2410" y="1760" width="305" height="170" as="geometry" />
        </mxCell>
        <mxCell id="XCLAvbW0XNBxhQ3h1dfB-54" value="" style="shape=image;html=1;verticalLabelPosition=bottom;verticalAlign=top;imageAspect=0;image=img/clipart/Gear_128x128.png;sketch=1;hachureGap=4;jiggle=2;curveFitting=1;fontFamily=Architects Daughter;fontSource=https%3A%2F%2Ffonts.googleapis.com%2Fcss%3Ffamily%3DArchitects%2BDaughter;imageBackground=none;" vertex="1" parent="1">
          <mxGeometry x="2795" y="2010" width="830" height="680" as="geometry" />
        </mxCell>
        <mxCell id="XCLAvbW0XNBxhQ3h1dfB-56" value="&lt;div&gt;&lt;br&gt;&lt;/div&gt;&lt;div&gt;&lt;font style=&quot;color: rgb(255, 255, 255);&quot;&gt;Este botón te lleva al login form&lt;/font&gt;&lt;/div&gt;" style="whiteSpace=wrap;html=1;fontSize=20;fontFamily=Verdana;fillColor=none;strokeColor=#FFFFFF;fontColor=#025EF2;rounded=1;hachureGap=4;shadow=1;glass=0;arcSize=25;strokeWidth=2;" vertex="1" parent="1">
          <mxGeometry x="4450" y="1310" width="265" height="134.34" as="geometry" />
        </mxCell>
      </root>
    </mxGraphModel>
  </diagram>
  <diagram id="fkXV8IP8W46XIi0phzLx" name="LOGIN-SIGNUP">
    <mxGraphModel dx="4034" dy="2511" grid="1" gridSize="10" guides="1" tooltips="1" connect="1" arrows="1" fold="1" page="1" pageScale="1" pageWidth="1654" pageHeight="2336" math="0" shadow="0">
      <root>
        <mxCell id="0" />
        <mxCell id="1" parent="0" />
      </root>
    </mxGraphModel>
  </diagram>
  <diagram name="DASHBOARD" id="JIV0U7xj5EQli7SxjZzi">
    <mxGraphModel dx="4034" dy="2511" grid="1" gridSize="10" guides="1" tooltips="1" connect="1" arrows="1" fold="1" page="1" pageScale="1" pageWidth="1654" pageHeight="2336" math="0" shadow="0">
      <root>
        <mxCell id="0" />
        <mxCell id="1" parent="0" />
        <mxCell id="Cp2J34wRkjLyfckQq_pH-1" value="" style="rounded=0;whiteSpace=wrap;html=1;absoluteArcSize=1;arcSize=14;strokeWidth=2;hachureGap=4;fontFamily=Architects Daughter;fontSource=https%3A%2F%2Ffonts.googleapis.com%2Fcss%3Ffamily%3DArchitects%2BDaughter;fillColor=#FFFFFF;" parent="1" vertex="1">
          <mxGeometry x="180" y="40" width="660" height="400" as="geometry" />
        </mxCell>
        <mxCell id="Cp2J34wRkjLyfckQq_pH-2" value="Content" style="rounded=0;whiteSpace=wrap;absoluteArcSize=1;arcSize=14;strokeWidth=2;hachureGap=4;fontFamily=Architects Daughter;fontSource=https%3A%2F%2Ffonts.googleapis.com%2Fcss%3Ffamily%3DArchitects%2BDaughter;fillColor=#CDCDCD;strokeColor=none;dashed=1;perimeterSpacing=3;fontSize=48;fontColor=light-dark(#000000,#000312);" parent="1" vertex="1">
          <mxGeometry x="340" y="120" width="500" height="320" as="geometry" />
        </mxCell>
        <mxCell id="Cp2J34wRkjLyfckQq_pH-4" value="Inicio" style="verticalLabelPosition=bottom;verticalAlign=top;html=1;shape=card;whiteSpace=wrap;size=20;arcSize=12;hachureGap=4;fontFamily=Architects Daughter;fontSource=https%3A%2F%2Ffonts.googleapis.com%2Fcss%3Ffamily%3DArchitects%2BDaughter;rounded=1;fillColor=#0050ef;fontColor=#ffffff;strokeColor=#001DBC;align=center;spacingTop=-28;fontStyle=1;fontSize=14;" parent="1" vertex="1">
          <mxGeometry x="210" y="140" width="100" height="32" as="geometry" />
        </mxCell>
        <mxCell id="Cp2J34wRkjLyfckQq_pH-10" value="Registro" style="verticalLabelPosition=bottom;verticalAlign=top;html=1;shape=card;whiteSpace=wrap;size=20;arcSize=12;hachureGap=4;fontFamily=Architects Daughter;fontSource=https%3A%2F%2Ffonts.googleapis.com%2Fcss%3Ffamily%3DArchitects%2BDaughter;rounded=1;fillColor=#0050ef;fontColor=#ffffff;strokeColor=#001DBC;align=center;spacingTop=-28;fontStyle=1;fontSize=14;" parent="1" vertex="1">
          <mxGeometry x="210" y="240" width="100" height="32" as="geometry" />
        </mxCell>
        <mxCell id="Cp2J34wRkjLyfckQq_pH-11" value="Consultas" style="verticalLabelPosition=bottom;verticalAlign=top;html=1;shape=card;whiteSpace=wrap;size=20;arcSize=12;hachureGap=4;fontFamily=Architects Daughter;fontSource=https%3A%2F%2Ffonts.googleapis.com%2Fcss%3Ffamily%3DArchitects%2BDaughter;rounded=1;fillColor=#0050ef;fontColor=#ffffff;strokeColor=#001DBC;align=center;spacingTop=-28;fontStyle=1;fontSize=14;" parent="1" vertex="1">
          <mxGeometry x="210" y="190" width="100" height="32" as="geometry" />
        </mxCell>
        <mxCell id="Cp2J34wRkjLyfckQq_pH-12" value="Natura" style="strokeWidth=2;html=1;shape=mxgraph.flowchart.delay;whiteSpace=wrap;sketch=1;hachureGap=4;jiggle=2;curveFitting=1;fontFamily=Architects Daughter;fontSource=https%3A%2F%2Ffonts.googleapis.com%2Fcss%3Ffamily%3DArchitects%2BDaughter;fontSize=26;" parent="1" vertex="1">
          <mxGeometry x="220" y="50" width="320" height="60" as="geometry" />
        </mxCell>
        <mxCell id="Cp2J34wRkjLyfckQq_pH-13" value="Reporte" style="verticalLabelPosition=bottom;verticalAlign=top;html=1;shape=card;whiteSpace=wrap;size=20;arcSize=12;hachureGap=4;fontFamily=Architects Daughter;fontSource=https%3A%2F%2Ffonts.googleapis.com%2Fcss%3Ffamily%3DArchitects%2BDaughter;rounded=1;fillColor=#0050ef;fontColor=#ffffff;strokeColor=#001DBC;align=center;spacingTop=-28;fontStyle=1;fontSize=14;" parent="1" vertex="1">
          <mxGeometry x="210" y="289" width="100" height="32" as="geometry" />
        </mxCell>
      </root>
    </mxGraphModel>
  </diagram>
  <diagram id="MZwis9Q-VFiype0k8YGx" name="DH-RECORDS">
    <mxGraphModel dx="4034" dy="2511" grid="1" gridSize="10" guides="1" tooltips="1" connect="1" arrows="1" fold="1" page="1" pageScale="1" pageWidth="1654" pageHeight="2336" math="0" shadow="0">
      <root>
        <mxCell id="0" />
        <mxCell id="1" parent="0" />
      </root>
    </mxGraphModel>
  </diagram>
  <diagram name="DH-QUERIES" id="E6oZ9ETQGVTjMsugxFrl">
    <mxGraphModel dx="1412" dy="879" grid="1" gridSize="10" guides="1" tooltips="1" connect="1" arrows="1" fold="1" page="1" pageScale="1" pageWidth="1654" pageHeight="2336" math="0" shadow="0">
      <root>
        <mxCell id="knl9YlEZbDADwgy_5kfh-0" />
        <mxCell id="knl9YlEZbDADwgy_5kfh-1" parent="knl9YlEZbDADwgy_5kfh-0" />
      </root>
    </mxGraphModel>
  </diagram>
  <diagram name="DH-REPORTS" id="f1sttL7IQ1sPZxxV02n5">
    <mxGraphModel dx="1412" dy="879" grid="1" gridSize="10" guides="1" tooltips="1" connect="1" arrows="1" fold="1" page="1" pageScale="1" pageWidth="1654" pageHeight="2336" math="0" shadow="0">
      <root>
        <mxCell id="lWhRoQleLBjuw42VE7G7-0" />
        <mxCell id="lWhRoQleLBjuw42VE7G7-1" parent="lWhRoQleLBjuw42VE7G7-0" />
      </root>
    </mxGraphModel>
  </diagram>
</mxfile>
